<?xml version="1.0" encoding="utf-8" standalone="no"?>
<svg version="1.2" width="1080.000000pt" height="1080.000000pt" viewBox="0 0 1080.000000 1080.000000" preserveAspectRatio="xMidYMid meet" baseProfile="tiny-ps" xmlns="http://www.w3.org/2000/svg">
  <title>atms</title>
  <g transform="translate(0.000000,1080.000000) scale(0.100000,-0.100000)" fill="#000000" stroke="none">
    <path d="M5085 8833 c-22 -2 -121 -14 -220 -28 -99 -13 -247 -31 -330 -40 -937 -96 -1810 -346 -2550 -729 -735 -381 -1282 -859 -1619 -1414 -243 -399 -356 -788 -356 -1222 0 -364 74 -677 239 -1010 280 -564 771 -1064 1426 -1455 83 -48 161 -95 175 -104 14 -8 122 -63 241 -121 721 -355 1467 -563 2419 -675 113 -13 270 -34 350 -47 134 -21 176 -23 560 -22 382 0 426 2 555 22 77 13 203 29 280 38 582 61 1044 151 1530 298 1064 321 1957 873 2483 1533 229 288 397 601 494 921 l33 107 3 493 3 493 -32 117 c-41 155 -98 299 -181 460 -618 1206 -2239 2094 -4222 2312 -104 11 -230 27 -280 35 -222 36 -361 45 -661 43 -165 -1 -318 -3 -340 -5z m564 -289 c122 -67 246 -183 359 -336 69 -94 142 -207 142 -221 0 -4 -344 -7 -765 -7 -421 0 -765 2 -765 5 0 2 22 42 49 88 117 197 270 367 406 453 78 48 82 49 180 56 55 3 152 4 214 2 109 -4 118 -6 180 -40z m588 -10 c341 -70 731 -220 1043 -401 107 -63 230 -141 230 -148 0 -3 -246 -5 -547 -5 l-548 0 -35 67 c-79 150 -228 361 -328 466 l-46 47 53 0 c30 0 110 -12 178 -26z m-1535 -28 c-91 -99 -236 -316 -316 -475 l-26 -51 -503 0 c-581 0 -542 -15 -317 120 211 127 463 243 704 325 147 50 425 124 470 124 l29 1 -41 -44z m-1194 -159 c-10 -7 -77 -48 -148 -92 -72 -44 -190 -124 -261 -177 l-130 -98 -282 0 -282 1 39 20 c129 69 589 229 870 305 94 25 176 47 181 49 22 8 29 4 13 -8z m4042 -43 c230 -63 472 -144 677 -225 268 -106 272 -98 -50 -99 l-278 0 -87 68 c-95 76 -256 185 -369 252 -108 64 -108 64 107 4z m-4871 -591 c-7 -10 -41 -47 -74 -83 -205 -218 -397 -494 -535 -770 l-61 -120 -646 0 c-614 0 -645 1 -631 18 8 9 48 58 90 107 41 50 141 154 221 232 221 213 428 373 713 549 l137 84 400 0 c379 0 399 -1 386 -17z m1566 0 c-73 -191 -192 -625 -230 -843 -9 -52 -18 -103 -21 -112 -5 -17 -55 -18 -869 -18 l-864 0 41 78 c151 282 347 540 600 790 l125 122 612 0 c580 0 613 -1 606 -17z m2049 -12 c49 -93 141 -354 201 -566 29 -105 95 -374 95 -391 0 -2 -533 -4 -1184 -4 l-1184 0 15 78 c23 128 83 380 120 507 31 106 124 372 139 396 3 5 378 9 894 9 l889 0 15 -29z m1615 -33 c185 -176 368 -391 498 -588 63 -95 193 -320 193 -334 0 -3 -399 -6 -888 -6 l-887 0 -28 128 c-55 245 -143 545 -223 755 -19 49 -34 93 -34 98 0 5 265 9 652 9 l651 0 66 -62z m1140 10 c313 -187 627 -432 846 -659 93 -96 235 -262 235 -273 0 -3 -288 -6 -639 -6 l-639 0 -17 43 c-23 58 -136 263 -208 377 -85 135 -240 338 -346 454 -50 55 -91 103 -91 108 0 4 174 8 386 8 l386 0 87 -52z m1271 -1210 c43 -71 141 -278 175 -373 85 -235 125 -456 125 -695 0 -239 -39 -459 -124 -695 -38 -106 -168 -376 -193 -400 -13 -13 -641 -15 -4874 -15 -4617 0 -4860 1 -4876 18 -34 33 -162 308 -207 443 -187 561 -134 1114 160 1662 l47 87 4874 0 4873 0 20 -32z m-8299 -2450 c24 -61 141 -272 211 -383 97 -152 217 -309 342 -447 58 -65 106 -120 106 -123 0 -3 -174 -5 -386 -5 l-385 0 -85 50 c-303 179 -584 394 -814 621 -100 100 -251 269 -274 307 -6 9 123 12 632 12 l640 0 13 -32z m2050 -133 c62 -268 145 -542 220 -733 16 -40 29 -77 29 -82 0 -6 -236 -10 -652 -10 l-653 0 -160 163 c-227 231 -396 454 -533 705 -34 62 -62 115 -62 117 0 3 399 4 887 3 l887 -3 37 -160z m2559 156 c0 -25 -54 -274 -90 -418 -42 -166 -119 -404 -164 -506 l-25 -57 -886 0 -886 0 -28 63 c-49 107 -128 327 -171 476 -40 141 -110 419 -110 440 0 8 332 11 1180 11 711 0 1180 -4 1180 -9z m1918 -73 c-148 -278 -347 -537 -605 -790 l-120 -118 -610 0 -610 0 63 188 c67 199 139 477 175 680 l23 122 864 0 864 0 -44 -82z m1570 65 c-321 -384 -654 -669 -1068 -913 l-102 -60 -394 0 c-217 0 -394 3 -394 6 0 4 37 46 83 94 205 215 422 528 558 803 l43 87 645 0 c612 0 643 -1 629 -17z m-7033 -1314 c66 -49 175 -125 241 -167 174 -110 165 -103 124 -96 -180 32 -834 252 -986 333 l-39 20 270 0 270 1 120 -91z m1394 28 c96 -174 195 -317 303 -436 32 -35 58 -67 58 -71 0 -20 -281 30 -453 81 -220 65 -445 153 -631 246 -104 52 -333 187 -374 220 l-27 22 545 1 545 0 34 -63z m1751 55 c0 -14 -116 -198 -166 -263 -77 -101 -194 -211 -277 -263 -70 -44 -86 -49 -165 -58 -48 -5 -146 -8 -217 -6 l-130 3 -79 45 c-88 50 -228 176 -313 282 -55 69 -173 246 -173 260 0 4 342 8 760 8 418 0 760 -4 760 -8z m1250 3 c0 -8 -165 -112 -287 -180 -286 -159 -782 -338 -1030 -372 l-48 -6 45 52 c108 127 200 262 276 406 l56 105 494 0 c272 0 494 -2 494 -5z m935 -4 c-7 -12 -324 -137 -495 -196 -208 -71 -567 -172 -577 -162 -2 3 25 21 60 41 91 50 255 161 372 250 l100 75 273 1 c164 0 271 -4 267 -9z" />
    <path d="M4938 5893 c-9 -10 -37 -116 -63 -238 -26 -121 -49 -222 -51 -224 -1 -1 -18 8 -36 22 -49 36 -92 47 -187 47 -169 0 -190 -17 -225 -182 -29 -139 -37 -155 -83 -174 -31 -13 -38 -13 -59 1 -32 21 -31 48 5 216 16 73 34 160 41 192 l11 57 179 0 c179 0 180 0 195 24 9 14 15 39 13 58 l-3 33 -178 3 -178 2 6 33 c4 17 9 41 12 53 2 12 -3 28 -13 38 -15 15 -35 17 -160 14 -114 -2 -147 -6 -159 -19 -10 -10 -40 -129 -80 -320 -36 -167 -67 -313 -70 -325 -9 -40 -83 -50 -97 -12 -3 7 5 63 18 123 68 324 69 330 50 360 -30 46 -69 55 -246 55 -122 0 -170 -4 -197 -15 -33 -14 -38 -14 -45 0 -12 21 -299 23 -316 2 -6 -7 -36 -127 -66 -266 -30 -139 -60 -259 -67 -267 -6 -8 -24 -14 -39 -14 -56 0 -56 9 1 279 43 207 50 253 39 265 -18 23 -270 23 -304 1 -20 -14 -27 -14 -59 0 -43 18 -309 21 -369 5 -40 -11 -92 -50 -108 -81 -14 -25 -110 -476 -110 -515 0 -31 24 -61 67 -83 13 -7 84 -11 186 -11 150 0 167 2 208 23 l44 22 45 -23 c40 -21 55 -23 135 -19 96 4 159 25 222 73 l33 25 0 -44 c0 -32 5 -47 16 -51 32 -12 289 -7 308 7 12 9 32 81 72 267 34 160 61 264 73 280 25 34 63 47 96 32 35 -16 33 -48 -15 -275 -49 -230 -50 -247 -10 -281 38 -32 83 -40 175 -33 80 6 150 32 206 77 l36 28 12 -33 c24 -68 33 -70 358 -73 330 -4 358 0 413 56 32 33 39 49 59 147 15 73 30 117 44 133 24 26 72 30 81 6 4 -9 -8 -83 -25 -165 -27 -122 -30 -151 -19 -163 19 -24 301 -23 324 0 9 8 16 17 16 19 0 8 91 429 102 473 12 47 56 92 92 92 27 0 56 -29 56 -57 0 -11 -20 -116 -45 -233 -53 -248 -52 -259 24 -293 37 -16 59 -19 130 -15 94 6 147 23 203 68 42 35 58 38 58 12 0 -23 35 -57 73 -71 18 -7 141 -11 331 -11 l302 0 55 28 c44 22 58 36 77 75 23 48 57 72 86 61 23 -9 26 -31 15 -85 -17 -77 -13 -79 157 -79 138 0 144 1 157 23 8 12 38 132 66 267 29 135 58 254 66 266 7 11 28 27 45 34 38 16 77 1 85 -32 3 -13 -17 -124 -44 -248 -34 -156 -46 -230 -40 -242 8 -16 26 -18 128 -18 87 0 121 4 130 14 6 7 31 109 56 227 25 118 50 229 56 247 11 33 51 62 87 62 23 0 52 -30 52 -55 0 -10 -20 -115 -45 -233 -53 -251 -52 -261 24 -295 37 -16 58 -19 120 -14 98 8 138 21 199 67 l49 37 12 -34 c10 -26 24 -40 54 -54 38 -17 69 -19 318 -19 315 0 356 7 407 64 32 36 52 106 52 177 0 73 -36 93 -264 145 -126 28 -156 46 -156 89 0 38 25 92 48 104 50 27 87 8 114 -59 22 -53 39 -62 130 -67 145 -9 289 26 296 73 2 16 -4 19 -40 19 l-43 0 -5 46 c-6 52 -20 73 -61 95 -37 19 -580 21 -642 2 -81 -24 -119 -82 -133 -205 -6 -48 -4 -54 22 -81 33 -33 80 -50 246 -87 64 -15 125 -33 135 -40 12 -9 17 -25 17 -55 -2 -74 -64 -127 -119 -102 -22 10 -25 18 -25 60 0 26 -5 53 -12 60 -8 8 -56 12 -150 12 -125 0 -140 -2 -158 -20 -11 -11 -20 -29 -20 -39 0 -28 -27 -51 -60 -51 -52 0 -52 18 -2 253 52 246 51 255 -18 289 -55 28 -323 26 -388 -2 l-47 -20 -40 20 c-33 17 -59 20 -167 20 -93 0 -139 -4 -165 -15 -33 -14 -38 -14 -45 0 -7 12 -34 15 -148 15 -134 0 -140 -1 -154 -22 -8 -13 -36 -124 -62 -248 -26 -124 -49 -227 -51 -229 -1 -2 -12 4 -22 13 -37 34 -92 45 -216 45 -146 1 -196 -16 -214 -72 -24 -70 -104 -107 -137 -62 -17 23 -17 42 4 130 l17 70 206 5 c205 5 206 5 248 33 49 32 64 62 84 169 17 92 7 126 -46 151 -30 15 -76 17 -344 17 l-309 0 -51 -25 c-28 -14 -58 -37 -67 -50 -9 -14 -37 -122 -62 -242 -25 -120 -51 -224 -56 -230 -6 -7 -26 -13 -44 -13 -27 0 -35 5 -39 23 -3 12 12 109 35 215 22 106 40 208 40 227 0 38 -24 69 -66 85 -34 13 -336 13 -370 0 -15 -6 -29 -8 -31 -6 -3 3 3 41 12 85 25 113 28 111 -155 111 -127 0 -149 -2 -162 -17z m-2436 -280 c25 -23 23 -46 -21 -249 -36 -164 -42 -181 -70 -206 -17 -16 -40 -28 -51 -28 -23 0 -60 33 -60 55 0 8 18 98 40 201 39 187 51 217 95 235 31 12 47 10 67 -8z m3780 0 c21 -19 22 -42 7 -113 l-11 -50 -69 0 c-77 0 -76 -2 -58 79 17 81 86 125 131 84z" />
  </g>
</svg>